<mxfile host="app.diagrams.net" agent="Mozilla/5.0 (Macintosh; Intel Mac OS X 10_15_7) AppleWebKit/537.36 (KHTML, like Gecko) Chrome/130.0.0.0 Safari/537.36" scale="1" border="0" version="24.8.3">
  <diagram name="Page-1" id="2YBvvXClWsGukQMizWep">
    <mxGraphModel dx="3040" dy="1385" grid="1" gridSize="10" guides="1" tooltips="1" connect="1" arrows="1" fold="1" page="1" pageScale="1" pageWidth="850" pageHeight="1100" math="0" shadow="0">
      <root>
        <mxCell id="0" />
        <mxCell id="1" parent="0" />
        <mxCell id="bjVUPFGAhQ7X9oyQEovi-2" value="User" style="shape=umlLifeline;perimeter=lifelinePerimeter;whiteSpace=wrap;container=1;dropTarget=0;collapsible=0;recursiveResize=0;outlineConnect=0;portConstraint=eastwest;newEdgeStyle={&quot;edgeStyle&quot;:&quot;elbowEdgeStyle&quot;,&quot;elbow&quot;:&quot;vertical&quot;,&quot;curved&quot;:0,&quot;rounded&quot;:0};size=65;" parent="1" vertex="1">
          <mxGeometry x="-120" y="470" width="150" height="1050" as="geometry" />
        </mxCell>
        <mxCell id="bjVUPFGAhQ7X9oyQEovi-3" value="Emergency" style="shape=umlLifeline;perimeter=lifelinePerimeter;whiteSpace=wrap;container=1;dropTarget=0;collapsible=0;recursiveResize=0;outlineConnect=0;portConstraint=eastwest;newEdgeStyle={&quot;edgeStyle&quot;:&quot;elbowEdgeStyle&quot;,&quot;elbow&quot;:&quot;vertical&quot;,&quot;curved&quot;:0,&quot;rounded&quot;:0};size=65;" parent="1" vertex="1">
          <mxGeometry x="220" y="470" width="150" height="1050" as="geometry" />
        </mxCell>
        <mxCell id="bjVUPFGAhQ7X9oyQEovi-4" value="" style="points=[];perimeter=orthogonalPerimeter;outlineConnect=0;targetShapes=umlLifeline;portConstraint=eastwest;newEdgeStyle={&quot;edgeStyle&quot;:&quot;elbowEdgeStyle&quot;,&quot;elbow&quot;:&quot;vertical&quot;,&quot;curved&quot;:0,&quot;rounded&quot;:0}" parent="bjVUPFGAhQ7X9oyQEovi-3" vertex="1">
          <mxGeometry x="70" y="103" width="10" height="927" as="geometry" />
        </mxCell>
        <mxCell id="bjVUPFGAhQ7X9oyQEovi-5" value="Firefighting Crew" style="shape=umlLifeline;perimeter=lifelinePerimeter;whiteSpace=wrap;container=1;dropTarget=0;collapsible=0;recursiveResize=0;outlineConnect=0;portConstraint=eastwest;newEdgeStyle={&quot;edgeStyle&quot;:&quot;elbowEdgeStyle&quot;,&quot;elbow&quot;:&quot;vertical&quot;,&quot;curved&quot;:0,&quot;rounded&quot;:0};size=65;" parent="1" vertex="1">
          <mxGeometry x="451" y="470" width="150" height="1050" as="geometry" />
        </mxCell>
        <mxCell id="bjVUPFGAhQ7X9oyQEovi-6" value="" style="points=[];perimeter=orthogonalPerimeter;outlineConnect=0;targetShapes=umlLifeline;portConstraint=eastwest;newEdgeStyle={&quot;edgeStyle&quot;:&quot;elbowEdgeStyle&quot;,&quot;elbow&quot;:&quot;vertical&quot;,&quot;curved&quot;:0,&quot;rounded&quot;:0}" parent="bjVUPFGAhQ7X9oyQEovi-5" vertex="1">
          <mxGeometry x="73" y="280" width="10" height="710" as="geometry" />
        </mxCell>
        <mxCell id="bjVUPFGAhQ7X9oyQEovi-7" value="Medical Team" style="shape=umlLifeline;perimeter=lifelinePerimeter;whiteSpace=wrap;container=1;dropTarget=0;collapsible=0;recursiveResize=0;outlineConnect=0;portConstraint=eastwest;newEdgeStyle={&quot;edgeStyle&quot;:&quot;elbowEdgeStyle&quot;,&quot;elbow&quot;:&quot;vertical&quot;,&quot;curved&quot;:0,&quot;rounded&quot;:0};size=65;" parent="1" vertex="1">
          <mxGeometry x="651" y="470" width="150" height="1050" as="geometry" />
        </mxCell>
        <mxCell id="bjVUPFGAhQ7X9oyQEovi-8" value="" style="points=[];perimeter=orthogonalPerimeter;outlineConnect=0;targetShapes=umlLifeline;portConstraint=eastwest;newEdgeStyle={&quot;edgeStyle&quot;:&quot;elbowEdgeStyle&quot;,&quot;elbow&quot;:&quot;vertical&quot;,&quot;curved&quot;:0,&quot;rounded&quot;:0}" parent="bjVUPFGAhQ7X9oyQEovi-7" vertex="1">
          <mxGeometry x="73" y="280" width="10" height="710" as="geometry" />
        </mxCell>
        <mxCell id="bjVUPFGAhQ7X9oyQEovi-9" value="Police" style="shape=umlLifeline;perimeter=lifelinePerimeter;whiteSpace=wrap;container=1;dropTarget=0;collapsible=0;recursiveResize=0;outlineConnect=0;portConstraint=eastwest;newEdgeStyle={&quot;edgeStyle&quot;:&quot;elbowEdgeStyle&quot;,&quot;elbow&quot;:&quot;vertical&quot;,&quot;curved&quot;:0,&quot;rounded&quot;:0};size=65;" parent="1" vertex="1">
          <mxGeometry x="851" y="470" width="150" height="1050" as="geometry" />
        </mxCell>
        <mxCell id="bjVUPFGAhQ7X9oyQEovi-10" value="" style="points=[];perimeter=orthogonalPerimeter;outlineConnect=0;targetShapes=umlLifeline;portConstraint=eastwest;newEdgeStyle={&quot;edgeStyle&quot;:&quot;elbowEdgeStyle&quot;,&quot;elbow&quot;:&quot;vertical&quot;,&quot;curved&quot;:0,&quot;rounded&quot;:0}" parent="bjVUPFGAhQ7X9oyQEovi-9" vertex="1">
          <mxGeometry x="73" y="280" width="10" height="710" as="geometry" />
        </mxCell>
        <mxCell id="bjVUPFGAhQ7X9oyQEovi-11" value="Parallel operations" style="shape=umlFrame;dashed=1;pointerEvents=0;dropTarget=0;strokeColor=#B3B3B3;height=15;width=240;" parent="1" vertex="1">
          <mxGeometry x="480" y="1119" width="490" height="221" as="geometry" />
        </mxCell>
        <mxCell id="bjVUPFGAhQ7X9oyQEovi-13" value="" style="verticalAlign=bottom;edgeStyle=elbowEdgeStyle;elbow=vertical;curved=0;rounded=0;endArrow=block;" parent="1" source="bjVUPFGAhQ7X9oyQEovi-2" target="bjVUPFGAhQ7X9oyQEovi-4" edge="1">
          <mxGeometry x="-0.4319" relative="1" as="geometry">
            <Array as="points">
              <mxPoint x="202" y="573" />
            </Array>
            <mxPoint as="offset" />
          </mxGeometry>
        </mxCell>
        <mxCell id="ENWVCnIKgmZfVIH5D-Bf-52" value="request" style="edgeLabel;html=1;align=center;verticalAlign=middle;resizable=0;points=[];" vertex="1" connectable="0" parent="bjVUPFGAhQ7X9oyQEovi-13">
          <mxGeometry x="-0.5067" relative="1" as="geometry">
            <mxPoint as="offset" />
          </mxGeometry>
        </mxCell>
        <mxCell id="bjVUPFGAhQ7X9oyQEovi-14" value="" style="verticalAlign=bottom;edgeStyle=elbowEdgeStyle;elbow=vertical;curved=0;rounded=0;endArrow=block;" parent="1" source="bjVUPFGAhQ7X9oyQEovi-4" target="bjVUPFGAhQ7X9oyQEovi-5" edge="1">
          <mxGeometry x="0.3793" relative="1" as="geometry">
            <Array as="points">
              <mxPoint x="450" y="750" />
              <mxPoint x="446" y="762" />
            </Array>
            <mxPoint as="offset" />
          </mxGeometry>
        </mxCell>
        <mxCell id="bjVUPFGAhQ7X9oyQEovi-15" value="" style="verticalAlign=bottom;edgeStyle=elbowEdgeStyle;elbow=vertical;curved=0;rounded=0;endArrow=block;" parent="1" target="bjVUPFGAhQ7X9oyQEovi-8" edge="1">
          <mxGeometry x="0.5563" relative="1" as="geometry">
            <Array as="points">
              <mxPoint x="546" y="750" />
            </Array>
            <mxPoint x="300" y="750" as="sourcePoint" />
            <mxPoint x="775.5" y="750" as="targetPoint" />
            <mxPoint as="offset" />
          </mxGeometry>
        </mxCell>
        <mxCell id="bjVUPFGAhQ7X9oyQEovi-16" value="" style="verticalAlign=bottom;edgeStyle=elbowEdgeStyle;elbow=vertical;curved=0;rounded=0;endArrow=block;" parent="1" edge="1">
          <mxGeometry x="0.7625" relative="1" as="geometry">
            <Array as="points">
              <mxPoint x="640" y="750" />
              <mxPoint x="580" y="810" />
              <mxPoint x="646" y="972" />
            </Array>
            <mxPoint x="300" y="972" as="sourcePoint" />
            <mxPoint x="925.4999999999995" y="750" as="targetPoint" />
            <mxPoint as="offset" />
          </mxGeometry>
        </mxCell>
        <mxCell id="ENWVCnIKgmZfVIH5D-Bf-17" value="provide initial general plan" style="edgeLabel;html=1;align=center;verticalAlign=middle;resizable=0;points=[];" vertex="1" connectable="0" parent="bjVUPFGAhQ7X9oyQEovi-16">
          <mxGeometry x="-0.2143" relative="1" as="geometry">
            <mxPoint as="offset" />
          </mxGeometry>
        </mxCell>
        <mxCell id="bjVUPFGAhQ7X9oyQEovi-19" value="" style="verticalAlign=bottom;edgeStyle=elbowEdgeStyle;elbow=vertical;curved=0;rounded=0;dashed=1;dashPattern=2 3;endArrow=block;" parent="1" edge="1">
          <mxGeometry relative="1" as="geometry">
            <Array as="points">
              <mxPoint x="647" y="1099" />
            </Array>
            <mxPoint x="920" y="1100" as="sourcePoint" />
            <mxPoint x="300" y="1099" as="targetPoint" />
          </mxGeometry>
        </mxCell>
        <mxCell id="ENWVCnIKgmZfVIH5D-Bf-27" value="status: en route" style="edgeLabel;html=1;align=center;verticalAlign=middle;resizable=0;points=[];" vertex="1" connectable="0" parent="bjVUPFGAhQ7X9oyQEovi-19">
          <mxGeometry x="0.6511" y="-1" relative="1" as="geometry">
            <mxPoint as="offset" />
          </mxGeometry>
        </mxCell>
        <mxCell id="bjVUPFGAhQ7X9oyQEovi-21" value="" style="verticalAlign=bottom;edgeStyle=elbowEdgeStyle;elbow=vertical;curved=0;rounded=0;endArrow=block;" parent="1" edge="1">
          <mxGeometry relative="1" as="geometry">
            <Array as="points">
              <mxPoint x="447" y="1368" />
            </Array>
            <mxPoint x="525.5" y="1368" as="sourcePoint" />
            <mxPoint x="300" y="1368" as="targetPoint" />
          </mxGeometry>
        </mxCell>
        <mxCell id="ENWVCnIKgmZfVIH5D-Bf-44" value="report &quot;fire out&quot;" style="edgeLabel;html=1;align=center;verticalAlign=middle;resizable=0;points=[];" vertex="1" connectable="0" parent="bjVUPFGAhQ7X9oyQEovi-21">
          <mxGeometry x="0.0207" y="-1" relative="1" as="geometry">
            <mxPoint x="-10" as="offset" />
          </mxGeometry>
        </mxCell>
        <mxCell id="bjVUPFGAhQ7X9oyQEovi-25" value="&lt;font style=&quot;font-size: 10px;&quot;&gt;&lt;b&gt;Information in Markdown format including:&lt;/b&gt;&lt;/font&gt;&lt;div&gt;&lt;font style=&quot;font-size: 10px;&quot;&gt;- Fire type: ordinary, electrical , gas, etc.&lt;br&gt;- X-location: X coordinate where the fire has originated&lt;br&gt;- Y-location: Y coordinate where the fire has originated&lt;br&gt;- Injured people: how many people has been injured due to the fire&lt;br&gt;- Fire severity: the severity of the fire, which can be low, medium or high&lt;br&gt;&lt;/font&gt;&lt;/div&gt;" style="fillColor=#ffff88;strokeColor=#9E916F;align=left;verticalAlign=middle;whiteSpace=wrap;html=1;" parent="1" vertex="1">
          <mxGeometry x="168" y="593" width="255" height="141" as="geometry" />
        </mxCell>
        <mxCell id="bjVUPFGAhQ7X9oyQEovi-26" value="&lt;div&gt;&lt;span style=&quot;background-color: initial;&quot;&gt;Actuator agents follow the plan and drive to the site to fight the fire&lt;/span&gt;&lt;/div&gt;" style="fillColor=#ffff88;strokeColor=#9E916F;fontSize=10;align=left;whiteSpace=wrap;html=1;" parent="1" vertex="1">
          <mxGeometry x="478" y="980" width="103.25" height="62" as="geometry" />
        </mxCell>
        <mxCell id="bjVUPFGAhQ7X9oyQEovi-27" value="Actuator agents follow the plan and drive to the site to do primary care and pick up injured people" style="fillColor=#ffff88;strokeColor=#9E916F;whiteSpace=wrap;html=1;fontSize=10;align=left;" parent="1" vertex="1">
          <mxGeometry x="653.37" y="980" width="151.25" height="80" as="geometry" />
        </mxCell>
        <mxCell id="bjVUPFGAhQ7X9oyQEovi-28" value="Actuator agents follow the plan and drive to the site to manage the traffic and evacuation" style="fillColor=#ffff88;strokeColor=#9E916F;whiteSpace=wrap;html=1;fontSize=10;align=left;" parent="1" vertex="1">
          <mxGeometry x="856.75" y="980" width="145.5" height="72" as="geometry" />
        </mxCell>
        <mxCell id="bjVUPFGAhQ7X9oyQEovi-30" value="&lt;div&gt;Firefighter actuation&lt;/div&gt;" style="fillColor=#ffff88;strokeColor=#9E916F;whiteSpace=wrap;html=1;align=left;fontSize=10;" parent="1" vertex="1">
          <mxGeometry x="502.38" y="1150" width="54.5" height="40" as="geometry" />
        </mxCell>
        <mxCell id="bjVUPFGAhQ7X9oyQEovi-33" value="All actuator agents coordinate themselves during those operations" style="fillColor=#ffff88;strokeColor=#9E916F;fontSize=10;" parent="1" vertex="1">
          <mxGeometry x="510" y="1290" width="446.75" height="31" as="geometry" />
        </mxCell>
        <mxCell id="bjVUPFGAhQ7X9oyQEovi-34" value="Actuator agents make a final check" style="fillColor=#ffff88;strokeColor=#9E916F;align=left;fontSize=10;whiteSpace=wrap;html=1;" parent="1" vertex="1">
          <mxGeometry x="481" y="1388" width="96" height="46" as="geometry" />
        </mxCell>
        <mxCell id="ENWVCnIKgmZfVIH5D-Bf-1" value="Ethics" style="shape=umlLifeline;perimeter=lifelinePerimeter;whiteSpace=wrap;container=1;dropTarget=0;collapsible=0;recursiveResize=0;outlineConnect=0;portConstraint=eastwest;newEdgeStyle={&quot;edgeStyle&quot;:&quot;elbowEdgeStyle&quot;,&quot;elbow&quot;:&quot;vertical&quot;,&quot;curved&quot;:0,&quot;rounded&quot;:0};size=65;" vertex="1" parent="1">
          <mxGeometry x="51" y="470" width="150" height="1050" as="geometry" />
        </mxCell>
        <mxCell id="ENWVCnIKgmZfVIH5D-Bf-2" value="" style="points=[];perimeter=orthogonalPerimeter;outlineConnect=0;targetShapes=umlLifeline;portConstraint=eastwest;newEdgeStyle={&quot;edgeStyle&quot;:&quot;elbowEdgeStyle&quot;,&quot;elbow&quot;:&quot;vertical&quot;,&quot;curved&quot;:0,&quot;rounded&quot;:0}" vertex="1" parent="ENWVCnIKgmZfVIH5D-Bf-1">
          <mxGeometry x="70" y="420" width="10" height="570" as="geometry" />
        </mxCell>
        <mxCell id="ENWVCnIKgmZfVIH5D-Bf-7" value="" style="endArrow=classic;html=1;rounded=0;" edge="1" parent="1" target="ENWVCnIKgmZfVIH5D-Bf-2">
          <mxGeometry width="50" height="50" relative="1" as="geometry">
            <mxPoint x="290" y="890" as="sourcePoint" />
            <mxPoint x="125.78571428571422" y="890" as="targetPoint" />
          </mxGeometry>
        </mxCell>
        <mxCell id="ENWVCnIKgmZfVIH5D-Bf-20" value="consult if ethical issues" style="edgeLabel;html=1;align=center;verticalAlign=middle;resizable=0;points=[];" vertex="1" connectable="0" parent="ENWVCnIKgmZfVIH5D-Bf-7">
          <mxGeometry x="-0.0037" y="-3" relative="1" as="geometry">
            <mxPoint as="offset" />
          </mxGeometry>
        </mxCell>
        <mxCell id="ENWVCnIKgmZfVIH5D-Bf-9" value="" style="endArrow=classic;html=1;rounded=0;" edge="1" parent="1">
          <mxGeometry width="50" height="50" relative="1" as="geometry">
            <mxPoint x="131" y="920" as="sourcePoint" />
            <mxPoint x="290" y="920" as="targetPoint" />
          </mxGeometry>
        </mxCell>
        <mxCell id="ENWVCnIKgmZfVIH5D-Bf-19" value="provide final plan" style="edgeLabel;html=1;align=center;verticalAlign=middle;resizable=0;points=[];" vertex="1" connectable="0" parent="ENWVCnIKgmZfVIH5D-Bf-9">
          <mxGeometry x="-0.0088" relative="1" as="geometry">
            <mxPoint as="offset" />
          </mxGeometry>
        </mxCell>
        <mxCell id="ENWVCnIKgmZfVIH5D-Bf-24" value="&lt;div&gt;&lt;span style=&quot;background-color: initial;&quot;&gt;Organisation agent creates strict, optimal plan regarding fire characteristics&lt;/span&gt;&lt;/div&gt;" style="fillColor=#ffff88;strokeColor=#9E916F;fontSize=10;align=left;whiteSpace=wrap;html=1;" vertex="1" parent="1">
          <mxGeometry x="476.75" y="780" width="104.5" height="62" as="geometry" />
        </mxCell>
        <mxCell id="ENWVCnIKgmZfVIH5D-Bf-25" value="Organisation agent creates strict, optimal plan regarding number of people injured, location of nearest ambulance/hospital, other characteristics" style="fillColor=#ffff88;strokeColor=#9E916F;whiteSpace=wrap;html=1;fontSize=10;align=left;" vertex="1" parent="1">
          <mxGeometry x="648.37" y="771" width="161.25" height="80" as="geometry" />
        </mxCell>
        <mxCell id="ENWVCnIKgmZfVIH5D-Bf-26" value="Organisation agent creates strict, optimal plan regarding nearest patrol car and available units" style="fillColor=#ffff88;strokeColor=#9E916F;whiteSpace=wrap;html=1;fontSize=10;align=left;" vertex="1" parent="1">
          <mxGeometry x="876.5" y="775" width="105.99" height="72" as="geometry" />
        </mxCell>
        <mxCell id="ENWVCnIKgmZfVIH5D-Bf-37" value="&lt;div&gt;&lt;span style=&quot;background-color: initial;&quot;&gt;Rescue actuation&lt;/span&gt;&lt;/div&gt;" style="fillColor=#ffff88;strokeColor=#9E916F;whiteSpace=wrap;html=1;align=left;fontSize=10;" vertex="1" parent="1">
          <mxGeometry x="503.88" y="1230" width="53" height="40" as="geometry" />
        </mxCell>
        <mxCell id="ENWVCnIKgmZfVIH5D-Bf-39" value="&lt;div&gt;Medical actuation&lt;/div&gt;" style="fillColor=#ffff88;strokeColor=#9E916F;whiteSpace=wrap;html=1;align=left;fontSize=10;" vertex="1" parent="1">
          <mxGeometry x="701.75" y="1150" width="54.5" height="40" as="geometry" />
        </mxCell>
        <mxCell id="ENWVCnIKgmZfVIH5D-Bf-40" value="Driver actuation" style="fillColor=#ffff88;strokeColor=#9E916F;whiteSpace=wrap;html=1;align=left;fontSize=10;" vertex="1" parent="1">
          <mxGeometry x="701.75" y="1230" width="54.5" height="40" as="geometry" />
        </mxCell>
        <mxCell id="ENWVCnIKgmZfVIH5D-Bf-41" value="Patrol actuation" style="fillColor=#ffff88;strokeColor=#9E916F;whiteSpace=wrap;html=1;align=left;fontSize=10;" vertex="1" parent="1">
          <mxGeometry x="902.25" y="1190" width="54.5" height="40" as="geometry" />
        </mxCell>
        <mxCell id="ENWVCnIKgmZfVIH5D-Bf-49" value="" style="endArrow=classic;html=1;rounded=0;" edge="1" parent="1">
          <mxGeometry width="50" height="50" relative="1" as="geometry">
            <mxPoint x="924" y="1460" as="sourcePoint" />
            <mxPoint x="300" y="1460" as="targetPoint" />
          </mxGeometry>
        </mxCell>
        <mxCell id="ENWVCnIKgmZfVIH5D-Bf-50" value="" style="endArrow=classic;html=1;rounded=0;" edge="1" parent="1">
          <mxGeometry width="50" height="50" relative="1" as="geometry">
            <mxPoint x="290" y="1500" as="sourcePoint" />
            <mxPoint x="-45" y="1500" as="targetPoint" />
          </mxGeometry>
        </mxCell>
        <mxCell id="ENWVCnIKgmZfVIH5D-Bf-51" value="report" style="edgeLabel;html=1;align=center;verticalAlign=middle;resizable=0;points=[];" vertex="1" connectable="0" parent="ENWVCnIKgmZfVIH5D-Bf-50">
          <mxGeometry x="0.5224" y="-1" relative="1" as="geometry">
            <mxPoint as="offset" />
          </mxGeometry>
        </mxCell>
        <mxCell id="ENWVCnIKgmZfVIH5D-Bf-53" value="" style="endArrow=classic;html=1;rounded=0;" edge="1" parent="1">
          <mxGeometry width="50" height="50" relative="1" as="geometry">
            <mxPoint x="924" y="870" as="sourcePoint" />
            <mxPoint x="300" y="870" as="targetPoint" />
          </mxGeometry>
        </mxCell>
        <mxCell id="ENWVCnIKgmZfVIH5D-Bf-54" value="provide crew specific plans" style="edgeLabel;html=1;align=center;verticalAlign=middle;resizable=0;points=[];" vertex="1" connectable="0" parent="ENWVCnIKgmZfVIH5D-Bf-53">
          <mxGeometry x="0.6994" relative="1" as="geometry">
            <mxPoint x="16" as="offset" />
          </mxGeometry>
        </mxCell>
        <mxCell id="ENWVCnIKgmZfVIH5D-Bf-58" value="" style="endArrow=classic;html=1;rounded=0;" edge="1" parent="1">
          <mxGeometry width="50" height="50" relative="1" as="geometry">
            <mxPoint x="300" y="951.5" as="sourcePoint" />
            <mxPoint x="524" y="951.5" as="targetPoint" />
          </mxGeometry>
        </mxCell>
        <mxCell id="ENWVCnIKgmZfVIH5D-Bf-59" value="" style="endArrow=classic;html=1;rounded=0;" edge="1" parent="1">
          <mxGeometry width="50" height="50" relative="1" as="geometry">
            <mxPoint x="300" y="951.5" as="sourcePoint" />
            <mxPoint x="725.5" y="951.5" as="targetPoint" />
          </mxGeometry>
        </mxCell>
        <mxCell id="ENWVCnIKgmZfVIH5D-Bf-60" value="" style="endArrow=classic;html=1;rounded=0;" edge="1" parent="1">
          <mxGeometry width="50" height="50" relative="1" as="geometry">
            <mxPoint x="300" y="951.5" as="sourcePoint" />
            <mxPoint x="925.5" y="951.5" as="targetPoint" />
          </mxGeometry>
        </mxCell>
        <mxCell id="ENWVCnIKgmZfVIH5D-Bf-61" value="provide final plan" style="edgeLabel;html=1;align=center;verticalAlign=middle;resizable=0;points=[];" vertex="1" connectable="0" parent="ENWVCnIKgmZfVIH5D-Bf-60">
          <mxGeometry x="-0.6668" relative="1" as="geometry">
            <mxPoint as="offset" />
          </mxGeometry>
        </mxCell>
      </root>
    </mxGraphModel>
  </diagram>
</mxfile>
